Coordinates
version=1
nRows=25
nColumns=33
inDegrees=yes

Units are S.I. units (second, meters, Newtons, ...)
Angles are in degrees.

endheader
time	ground_thorax_rot_x	ground_thorax_rot_y	ground_thorax_rot_z	ground_thorax_tx	ground_thorax_ty	ground_thorax_tz	clav_prot_r	clav_elev_r	scapula_abduction_r	scapula_elevation_r	scapula_upward_rot_r	scapula_winging_r	shoulder_elv_r	plane_of_elev_r	axial_rot_r	elbow_flexion_r	pro_sup_r	wrist_flex_r	wrist_dev_r	clav_prot_l	clav_elev_l	scapula_abduction_l	scapula_elevation_l	scapula_upward_rot_l	scapula_winging_l	shoulder_elv_l	plane_of_elev_l	axial_rot_l	elbow_flexion_l	pro_sup_l	wrist_flex_l	wrist_dev_l	
7.4100	-41.063918	-6.114508	0.179975	-47.103435	806.915482	9.848358	4.775811	-45.000000	44.999882	-45.000000	-8.430807	-3690.111057	-116.763513	150.873112	-105.066943	1810.667967	15.464595	17.349148	10.075745	15.880162	41.722330	-44.999965	-40.412227	-25.088003	2599.493642	-3701.422227	135.995758	178.672660	1086.639181	30.692738	10.180222	-19.569521	
7.4200	-40.790973	-6.255993	0.370987	-46.904782	805.622520	9.748529	4.996220	-45.000000	44.999788	-45.000000	-8.861346	-3690.067896	-116.767734	150.913304	-105.091026	1810.509528	15.774635	17.235073	10.128364	15.774266	41.326545	-44.999938	-40.145390	-25.216688	2599.553321	-3701.481808	135.960247	178.897409	1086.445865	30.073581	10.304844	-19.521483	
7.4300	-40.529899	-6.391360	0.564003	-46.825490	804.375383	9.620445	5.228596	-45.000000	44.999621	-45.000000	-9.279362	-3690.053227	-116.778204	150.966425	-105.106472	1810.362083	16.026878	17.143782	10.180641	15.654670	41.013070	-44.999888	-39.891743	-25.357793	2599.620744	-3701.537566	135.935670	179.074612	1086.271228	29.419902	10.420161	-19.473856	
7.4400	-40.281130	-6.481707	0.710664	-47.006822	803.241686	9.429576	5.365187	-45.000000	44.999320	-45.000000	-9.606446	-3690.077158	-116.786419	151.029514	-105.036487	1810.226376	16.079786	17.073086	10.272109	15.581670	40.760587	-44.999799	-39.659910	-25.423929	2599.708012	-3701.615474	135.932736	179.203919	1086.103658	28.749014	10.515778	-19.440197	
7.4500	-40.052559	-6.539952	0.827703	-47.463911	802.213728	9.175474	5.455494	-45.000000	44.998783	-45.000000	-9.883407	-3690.140776	-116.800247	151.100103	-104.904635	1810.100427	15.983513	17.029378	10.381203	15.532582	40.580865	-44.999641	-39.461924	-25.466901	2599.807998	-3701.699465	135.947750	179.270286	1085.947108	28.025450	10.609519	-19.417954	
7.4600	-39.847846	-6.573703	0.920832	-48.230428	801.293021	8.854341	5.512674	-45.000000	44.997819	-45.000000	-10.130534	-3690.237603	-116.818479	151.177768	-104.709524	1809.982279	15.761546	17.013158	10.503293	15.507361	40.469780	-44.999357	-39.308258	-25.511387	2599.916731	-3701.789565	135.980902	179.267585	1085.799308	27.225989	10.705127	-19.404124	
7.4700	-39.669048	-6.595444	1.005612	-49.306519	800.462715	8.472502	5.565239	-45.000000	44.996094	-45.000000	-10.390841	-3690.366923	-116.841426	151.251349	-104.466116	1809.872653	15.475948	17.023244	10.623058	15.501338	40.407051	-44.998848	-39.203413	-25.593344	2600.027291	-3701.877321	136.027740	179.201772	1085.658493	26.330044	10.818555	-19.397386	
7.4800	-39.519649	-6.624010	1.098310	-50.678238	799.700623	8.040953	5.642538	-45.000000	44.993002	-45.000000	-10.697367	-3690.505000	-116.866926	151.330464	-104.190586	1809.769959	15.193450	17.052109	10.728145	15.518297	40.389257	-44.997935	-39.163689	-25.765819	2600.123270	-3701.963732	136.087093	179.094628	1085.528551	25.319127	10.949097	-19.390427	
7.4900	-39.394571	-6.668763	1.211447	-52.334122	798.989864	7.570414	5.749186	-45.000000	44.987470	-45.000000	-11.073856	-3690.651449	-116.885211	151.408236	-103.891184	1809.682227	14.962132	17.096086	10.814863	15.569775	40.393499	-44.996304	-39.180200	-26.045123	2600.202683	-3702.044143	136.153555	178.972085	1085.408285	24.199219	11.099772	-19.382784	
7.5000	-39.293716	-6.738239	1.355101	-54.265362	798.318776	7.070587	5.902229	-45.000000	44.977540	-45.000000	-11.521883	-3690.809239	-116.901542	151.490764	-103.565793	1809.608356	14.817225	17.147422	10.884321	15.675673	40.422063	-44.993372	-39.257540	-26.475897	2600.255688	-3702.110542	136.211548	178.859773	1085.297206	22.978252	11.246514	-19.363787	
7.5100	-39.210710	-6.841755	1.545934	-56.465519	797.680529	6.549665	6.095432	-45.000000	44.959811	-45.000000	-12.060571	-3691.002902	-116.916649	151.562450	-103.200424	1809.557212	14.786193	17.209705	10.938312	15.842680	40.455333	-44.988147	-39.376144	-27.056371	2600.289608	-3702.156453	136.257250	178.783854	1085.192362	21.690733	11.391673	-19.336226	
7.5200	-39.146443	-6.974513	1.775492	-58.929899	797.072180	6.014185	6.321342	-45.000000	44.927889	-45.000000	-12.672458	-3691.223444	-116.936113	151.632528	-102.797088	1809.523897	14.884376	17.275256	10.976782	16.055504	40.491340	-44.978713	-39.533933	-27.764560	2600.310603	-3702.188175	136.292547	178.712255	1085.099688	20.405495	11.516040	-19.299417	
7.5300	-39.090973	-7.140706	2.049963	-61.654555	796.493378	5.469195	6.549720	-45.000000	44.871166	-45.000000	-13.377610	-3691.468983	-116.945103	151.692293	-102.350491	1809.514326	15.118855	17.347781	10.999838	16.289847	40.508919	-44.962024	-39.700419	-28.550457	2600.336897	-3702.207345	136.326766	178.640161	1085.015938	19.209780	11.635861	-19.265282	
7.5400	-39.046003	-7.327818	2.353137	-64.635333	795.945197	4.918642	6.770768	-45.000000	44.768278	-45.000000	-14.167747	-3691.715300	-116.941564	151.749691	-101.885034	1809.519379	15.479112	17.417467	11.009992	16.512807	40.512752	-44.931543	-39.875718	-29.374903	2600.371501	-3702.218579	136.362759	178.508871	1084.945563	18.187635	11.728795	-19.233513	
7.5500	-39.010886	-7.545172	2.698678	-67.866709	795.429204	4.365896	6.962285	-45.000000	44.587551	-45.000000	-15.090353	-3691.943267	-116.914940	151.798253	-101.406392	1809.541235	15.944929	17.484802	11.007481	16.707525	40.499308	-44.878578	-40.056000	-30.216491	2600.412597	-3702.221344	136.408314	178.331140	1084.888807	17.389660	11.808842	-19.212240	
7.5600	-38.997654	-7.785506	3.076678	-71.341439	794.946952	3.814096	7.103780	-45.000000	44.253838	-45.000000	-16.202666	-3692.071603	-116.841640	151.850282	-100.985369	1809.570941	16.476321	17.537453	10.990864	16.811272	40.500901	-44.779136	-40.268620	-31.049347	2600.446763	-3702.213970	136.463693	178.029351	1084.858929	16.849405	11.866358	-19.202286	
7.5700	-39.011852	-8.084693	3.538536	-75.050344	794.500017	3.266435	7.187289	-45.000000	43.706647	-45.000000	-17.616655	-3692.083437	-116.713935	151.889469	-100.602104	1809.607592	17.041729	17.575984	10.956998	16.850706	40.517672	-44.613752	-40.534267	-31.939524	2600.447368	-3702.173003	136.509925	177.686941	1084.846410	16.533176	11.922992	-19.203353	
7.5800	-39.099285	-8.646301	4.346402	-78.982581	794.090414	2.726212	7.236910	-45.000000	42.697564	-45.000000	-19.886792	-3691.881953	-116.512454	151.866509	-100.273288	1809.638866	17.597921	17.593717	10.907284	16.903135	40.560753	-44.281927	-41.016051	-33.302794	2600.249469	-3702.006636	136.488402	177.514923	1084.840966	16.337143	11.964186	-19.199799	
7.5900	-39.256001	-9.494391	5.521187	-83.125810	793.721034	2.196806	7.278590	-45.000000	41.284462	-45.000000	-22.983712	-3691.530018	-116.259300	151.772916	-99.942505	1809.662594	18.123253	17.596145	10.846066	17.040104	40.606542	-43.786834	-41.713184	-35.177515	2599.849973	-3701.715295	136.396558	177.600728	1084.834210	16.201165	12.000193	-19.187033	
7.6000	-39.465507	-10.599428	7.010970	-87.466659	793.396035	1.681491	7.325395	-45.000000	39.550594	-45.000000	-26.771696	-3691.062186	-115.951436	151.622277	-99.606116	1809.676852	18.595703	17.584346	10.774654	17.238845	40.642761	-43.140582	-42.579594	-37.473753	2599.289515	-3701.318499	136.258926	177.875838	1084.829984	16.106572	12.032368	-19.164899	
7.6100	-39.668082	-11.739924	8.525226	-91.991120	793.120790	1.183244	7.399392	-45.000000	37.846219	-45.000000	-30.554332	-3690.662566	-115.640395	151.462070	-99.181557	1809.682392	19.019518	17.565428	10.694681	17.481692	40.640126	-42.457184	-43.419673	-39.753117	2598.746546	-3700.914059	136.144834	178.128909	1084.831678	16.079785	12.077419	-19.139361	
7.6200	-39.846575	-12.853429	9.983375	-96.684515	792.901962	0.704613	7.506766	-45.000000	36.261923	-45.000000	-34.160484	-3690.364707	-115.328312	151.305405	-98.700656	1809.683744	19.382570	17.542466	10.614497	17.727151	40.588416	-41.768969	-44.175323	-41.903012	2598.267211	-3700.530476	136.080477	178.274728	1084.840828	16.105757	12.120226	-19.109394	
7.6300	-39.959807	-13.699866	11.082704	-101.531511	792.746928	0.247430	7.639514	-45.000000	35.078039	-45.000000	-36.962972	-3690.286188	-115.057796	151.198899	-98.166641	1809.681867	19.689571	17.518936	10.543915	17.900802	40.488582	-41.181047	-44.684793	-43.467766	2598.014646	-3700.268978	136.123522	178.069898	1084.866233	16.230098	12.154515	-19.082365	
7.6400	-40.011092	-14.246418	11.788199	-106.515948	792.663915	-0.187259	7.767087	-45.000000	34.263194	-45.000000	-38.967463	-3690.377108	-114.811427	151.143342	-97.634840	1809.683105	19.933590	17.496206	10.485255	17.940476	40.359009	-40.697152	-44.946215	-44.398885	2597.994053	-3700.141276	136.271589	177.489688	1084.905456	16.446154	12.176607	-19.062276	
7.6500	-40.016511	-14.495176	12.115736	-111.620763	792.661119	-0.599699	7.878052	-45.000000	33.781340	-45.000000	-40.229052	-3690.619012	-114.601287	151.134488	-97.106886	1809.689151	20.120905	17.477455	10.442497	17.866342	40.223532	-40.312693	-44.992738	-44.727456	2598.176698	-3700.142595	136.511405	176.574120	1084.956635	16.741462	12.182558	-19.050687	
